Coordinates
version=1
nRows=42
nColumns=11
inDegrees=yes

Units are S.I. units (second, meters, Newtons, ...)
If the header above contains a line with 'inDegrees', this indicates whether rotational values are in degrees (yes) or radians (no).

endheader
time	pelvis_tilt	pelvis_tx	pelvis_ty	hip_flexion_l	hip_flexion_r	knee_angle_l	knee_angle_r	ankle_angle_l	ankle_angle_r	lumbar_extension
      4.98000000	     43.73939036	     -0.08382112	      1.08409181	     36.18424297	     28.03500962	     -3.60098924	    -60.44241155	    -43.04541287	    -44.91756082	    -40.07401458
      4.99000000	     43.81137765	     -0.08373740	      1.08415492	     35.98930759	     27.93972551	     -3.95114402	    -60.42625264	    -41.83595662	    -44.96003815	    -40.13709938
      5.00000000	     43.80983222	     -0.08360347	      1.08419506	     35.88801691	     27.93788553	     -4.44269858	    -60.45076932	    -40.50244982	    -44.92659138	    -40.11537463
      5.01000000	     43.82047375	     -0.08345469	      1.08417012	     35.77729783	     27.93522922	     -5.03912614	    -60.49710987	    -39.22641661	    -44.86981202	    -40.10867851
      5.02000000	     43.85412766	     -0.08328241	      1.08418353	     35.52431186	     27.88321810	     -5.53056260	    -60.49780563	    -38.20050871	    -44.86980715	    -40.11908975
      5.03000000	     43.89911974	     -0.08303419	      1.08422707	     35.26802915	     27.82165837	     -6.16292395	    -60.52412930	    -37.17152989	    -44.78952831	    -40.12900101
      5.04000000	     43.86601478	     -0.08276702	      1.08418170	     35.09179905	     27.85728092	     -7.01167799	    -60.56046858	    -35.70020612	    -44.74739123	    -40.05969248
      5.05000000	     43.93677737	     -0.08235093	      1.08429946	     34.69156838	     27.75389021	     -8.09790241	    -60.59898536	    -33.50935833	    -44.65744818	    -40.07117644
      5.06000000	     43.97776584	     -0.08198419	      1.08428788	     34.28029423	     27.70560935	     -8.84929386	    -60.65622333	    -32.62867411	    -44.60533228	    -40.06063807
      5.07000000	     43.98143208	     -0.08139471	      1.08439038	     33.78224058	     27.66616681	     -9.77257923	    -60.70065087	    -31.39191287	    -44.54241672	    -39.97899597
      5.08000000	     43.87901332	     -0.08084946	      1.08440022	     33.19618574	     27.73195857	    -10.52837282	    -60.70464543	    -30.30034689	    -44.53822034	    -39.79742988
      5.09000000	     43.85670148	     -0.08024878	      1.08435027	     32.56369829	     27.73927446	    -11.45083498	    -60.77314128	    -29.49690554	    -44.48308047	    -39.68905409
      5.10000000	     43.73232456	     -0.07966380	      1.08440233	     31.85953281	     27.81981818	    -12.17844084	    -60.79537184	    -29.14882716	    -44.56135834	    -39.48220076
      5.11000000	     43.65386455	     -0.07894233	      1.08450643	     31.25741533	     27.84824142	    -13.36322738	    -60.82843564	    -28.71748821	    -44.55711821	    -39.29372435
      5.12000000	     43.55359951	     -0.07817687	      1.08451571	     30.68487984	     27.91292235	    -14.66812831	    -60.89559053	    -28.78960288	    -44.54053879	    -39.08154135
      5.13000000	     43.42666273	     -0.07738920	      1.08447041	     30.05231943	     27.99442619	    -15.94858949	    -60.95548767	    -28.91183374	    -44.50988986	    -38.83578525
      5.14000000	     43.23472301	     -0.07656162	      1.08451800	     29.49188419	     28.13562155	    -17.43751544	    -60.98310205	    -29.22841703	    -44.28652794	    -38.51202795
      5.15000000	     43.15343523	     -0.07573570	      1.08465819	     28.82553115	     28.14669509	    -19.10943076	    -61.01282803	    -29.10614123	    -44.19232393	    -38.30279159
      5.16000000	     42.96243240	     -0.07493327	      1.08455028	     28.36013473	     28.30679526	    -21.05566321	    -61.07780774	    -29.09688222	    -44.29021800	    -37.98266978
      5.17000000	     42.84434256	     -0.07399359	      1.08464631	     27.87162366	     28.35788832	    -23.39498043	    -61.14035331	    -28.42391417	    -44.25656518	    -37.71026931
      5.18000000	     42.60179098	     -0.07322290	      1.08480068	     27.64921231	     28.48215048	    -26.15452033	    -61.08856513	    -27.77845198	    -44.24690542	    -37.39464984
      5.19000000	     42.31346150	     -0.07231891	      1.08480906	     27.59855697	     28.72120522	    -29.23992177	    -61.12836594	    -27.23599268	    -44.29457585	    -36.88546603
      5.20000000	     42.07775511	     -0.07141310	      1.08491286	     27.55896007	     28.89275402	    -32.50868235	    -61.16266786	    -26.97668555	    -44.28842319	    -36.48501946
      5.21000000	     41.86566671	     -0.07041176	      1.08500824	     27.51142535	     29.07379603	    -35.87916044	    -61.26786174	    -26.89450932	    -44.22870205	    -36.08212630
      5.22000000	     41.59211871	     -0.06946093	      1.08513902	     27.50760260	     29.28119318	    -39.32893719	    -61.30563130	    -26.91189651	    -44.07626667	    -35.62025385
      5.23000000	     41.31858854	     -0.06849663	      1.08529866	     27.51353364	     29.49339807	    -42.78577266	    -61.37317905	    -27.69499500	    -43.96116634	    -35.14988081
      5.24000000	     41.01574207	     -0.06773605	      1.08548478	     27.41178135	     29.72900655	    -46.02685500	    -61.40710731	    -28.61613517	    -43.85375762	    -34.67153310
      5.25000000	     40.73749068	     -0.06696779	      1.08579665	     27.35677237	     29.89901310	    -49.41593919	    -61.39031447	    -29.63930461	    -43.85242431	    -34.21208063
      5.26000000	     40.45843758	     -0.06621146	      1.08614938	     27.37316772	     30.09723019	    -52.83787923	    -61.38291423	    -31.58147638	    -43.88278618	    -33.75023531
      5.27000000	     40.17250166	     -0.06549060	      1.08654779	     27.38810251	     30.30217251	    -56.11385345	    -61.44432153	    -33.79670782	    -43.74844308	    -33.27897680
      5.28000000	     39.76023416	     -0.06484667	      1.08683228	     27.51686728	     30.65519057	    -59.19313964	    -61.48038984	    -36.20233594	    -43.73805207	    -32.67795920
      5.29000000	     39.37616974	     -0.06406343	      1.08716756	     27.65621692	     30.94223275	    -62.24701746	    -61.52272651	    -38.60723103	    -43.61438369	    -32.08164362
      5.30000000	     38.90634804	     -0.06334591	      1.08747234	     27.95949367	     31.31605272	    -65.41189713	    -61.56222209	    -40.43641829	    -43.45897648	    -31.41020128
      5.31000000	     38.51317723	     -0.06267706	      1.08776599	     28.22920714	     31.61017486	    -68.47282985	    -61.60788076	    -41.87187504	    -43.31100527	    -30.83025722
      5.32000000	     38.16977269	     -0.06205760	      1.08814034	     28.52212344	     31.83775039	    -71.54790968	    -61.65571607	    -42.83694646	    -43.32500370	    -30.27229057
      5.33000000	     37.89906192	     -0.06153254	      1.08854827	     28.82549090	     31.99319877	    -74.59726868	    -61.73346946	    -43.33250363	    -43.10479631	    -29.80874518
      5.34000000	     37.60293168	     -0.06104896	      1.08891947	     29.25067724	     32.17991858	    -77.68151240	    -61.83486479	    -43.60885220	    -42.96297650	    -29.32214094
      5.35000000	     37.34805111	     -0.06061362	      1.08917669	     29.74854968	     32.34424825	    -80.69588752	    -61.98763010	    -44.03155616	    -42.81078853	    -28.88516177
      5.36000000	     37.16304343	     -0.06016313	      1.08942220	     30.28598148	     32.48783633	    -83.73175551	    -62.25431423	    -43.97819034	    -42.73247519	    -28.51607217
      5.37000000	     36.98242249	     -0.05982782	      1.08956881	     30.88015167	     32.61772695	    -86.65597651	    -62.51145330	    -43.80649350	    -42.67724353	    -28.17759211
      5.38000000	     36.87398925	     -0.05960859	      1.08959143	     31.47445739	     32.70928700	    -89.47102823	    -62.83085446	    -43.73917819	    -42.68834988	    -27.93527611
      5.39000000	     36.81830250	     -0.05946893	      1.08955049	     32.02403555	     32.77684909	    -92.07543679	    -63.18833794	    -43.66666706	    -42.83597448	    -27.77633890
